<svg width="1920" height="528" viewBox="0 0 1920 528" fill="none" xmlns="http://www.w3.org/2000/svg">
<path d="M566.238 44.2542L614.872 55.4078L664.944 36.4189L692.941 12.6828L725.783 29.298H769.901L813.005 36.4189L851.328 44.2542L881.368 12.6828L898.76 36.4189H924.454L936.837 44.2542L957.835 36.4189L969.119 55.4078L999.16 29.298L1032.36 36.4189L1057.79 29.298L1070.31 55.4078L1106.67 36.4189L1146.99 55.4078L1172.42 44.2542V564.754H566.238V44.2542Z" fill="#080605"/>
<path d="M1355.99 52.2078L1404.62 63.3614L1454.69 44.3724L1482.69 20.6363L1515.53 37.2516H1559.65L1602.75 44.3724L1641.08 52.2078L1671.12 20.6363L1688.51 44.3724H1714.2L1726.59 52.2078L1747.58 44.3724L1758.87 63.3614L1788.91 37.2516L1822.11 44.3724L1847.54 37.2516L1860.06 63.3614L1896.42 44.3724L1936.74 63.3614L1962.17 52.2078V572.707H1355.99V52.2078Z" fill="#080605"/>
<path d="M1052.9 61.9901L1101.53 73.1437L1151.6 54.1548L1179.6 30.4187L1212.44 47.0339H1256.56L1299.66 54.1548L1337.99 61.9901L1368.03 30.4187L1385.42 54.1548H1411.11L1423.5 61.9901L1444.49 54.1548L1455.78 73.1437L1485.82 47.0339L1519.02 54.1548L1544.45 47.0339L1556.97 73.1437L1593.33 54.1548L1633.65 73.1437L1659.08 61.9901V582.49H1052.9V61.9901Z" fill="#080605"/>
<path d="M681.283 44.2542L729.917 55.4078L779.988 36.4189L807.985 12.6828L840.828 29.298H884.946L928.049 36.4189L966.373 44.2542L996.413 12.6828L1013.81 36.4189H1039.5L1051.88 44.2542L1072.88 36.4189L1084.16 55.4078L1114.2 29.298L1147.41 36.4189L1172.84 29.298L1185.35 55.4078L1221.72 36.4189L1262.04 55.4078L1287.47 44.2542V564.754H681.283V44.2542Z" fill="#080605"/>
<path d="M1471.03 52.2078L1519.67 63.3614L1569.74 44.3724L1597.73 20.6363L1630.58 37.2516H1674.7L1717.8 44.3724L1756.12 52.2078L1786.16 20.6363L1803.55 44.3724H1829.25L1841.63 52.2078L1862.63 44.3724L1873.91 63.3614L1903.95 37.2516L1937.16 44.3724L1962.58 37.2516L1975.1 63.3614L2011.47 44.3724L2051.79 63.3614L2077.21 52.2078V572.707H1471.03V52.2078Z" fill="#080605"/>
<path d="M1167.94 61.9901L1216.58 73.1437L1266.65 54.1548L1294.64 30.4187L1327.49 47.0339H1371.6L1414.71 54.1548L1453.03 61.9901L1483.07 30.4187L1500.46 54.1548H1526.16L1538.54 61.9901L1559.54 54.1548L1570.82 73.1437L1600.86 47.0339L1634.07 54.1548L1659.49 47.0339L1672.01 73.1437L1708.38 54.1548L1748.7 73.1437L1774.12 61.9901V582.49H1167.94V61.9901Z" fill="#080605"/>
<path d="M-298.061 32.0578L-249.427 43.2114L-199.355 24.2224L-171.358 0.486328L-138.516 17.1016H-94.3973L-51.2942 24.2224L-12.971 32.0578L17.0697 0.486328L34.4617 24.2224H60.1553L72.5386 32.0578L93.5363 24.2224L104.82 43.2114L134.861 17.1016L168.064 24.2224L193.491 17.1016L206.01 43.2114L242.375 24.2224L282.693 43.2114L308.122 32.0578V552.557H-298.061L-298.061 32.0578Z" fill="#080605"/>
<path d="M491.689 40.0113L540.323 51.1649L590.394 32.176L618.391 8.43986L651.234 25.0551H695.352L738.455 32.176L776.778 40.0113L806.819 8.43986L824.211 32.176H849.905L862.288 40.0113L883.286 32.176L894.57 51.1649L924.611 25.0551L957.813 32.176L983.241 25.0551L995.76 51.1649L1032.12 32.176L1072.44 51.1649L1097.87 40.0113V560.511H491.689V40.0113Z" fill="#080605"/>
<path d="M188.598 49.7936L237.232 60.9472L287.303 41.9583L315.3 18.2222L348.143 34.8374H392.261L435.364 41.9583L473.688 49.7936L503.728 18.2222L521.12 41.9583H546.814L559.197 49.7936L580.195 41.9583L591.479 60.9472L621.52 34.8374L654.723 41.9583L680.15 34.8374L692.669 60.9472L729.034 41.9583L769.352 60.9472L794.78 49.7936V570.293H188.598V49.7936Z" fill="#080605"/>
<path d="M-183.016 32.0578L-134.382 43.2114L-84.3103 24.2224L-56.3133 0.486328L-23.4707 17.1016H20.6476L63.7506 24.2224L102.074 32.0578L132.115 0.486328L149.507 24.2224H175.2L187.583 32.0578L208.581 24.2224L219.865 43.2114L249.906 17.1016L283.109 24.2224L308.536 17.1016L321.055 43.2114L357.42 24.2224L397.738 43.2114L423.166 32.0578V552.557H-183.016V32.0578Z" fill="#080605"/>
<path d="M606.734 40.0113L655.368 51.1649L705.439 32.176L733.436 8.43986L766.279 25.0551H810.397L853.5 32.176L891.823 40.0113L921.864 8.43986L939.256 32.176H964.95L977.333 40.0113L998.331 32.176L1009.61 51.1649L1039.66 25.0551L1072.86 32.176L1098.29 25.0551L1110.8 51.1649L1147.17 32.176L1187.49 51.1649L1212.92 40.0113V560.511H606.734V40.0113Z" fill="#080605"/>
<path d="M303.643 49.7936L352.277 60.9472L402.348 41.9583L430.345 18.2222L463.188 34.8374H507.306L550.409 41.9583L588.732 49.7936L618.773 18.2222L636.165 41.9583H661.859L674.242 49.7936L695.24 41.9583L706.524 60.9472L736.565 34.8374L769.767 41.9583L795.195 34.8374L807.714 60.9472L844.079 41.9583L884.397 60.9472L909.825 49.7936V570.293H303.643V49.7936Z" fill="#080605"/>
</svg>
