<svg width="342" height="1080" viewBox="0 0 342 1080" fill="none" xmlns="http://www.w3.org/2000/svg">
<g clip-path="url(#clip0_801_3)">
<rect width="608" height="342" transform="translate(0 608) rotate(-90)" fill="black"/>
<ellipse cx="20.0124" cy="554.04" rx="50.6667" ry="50.6667" transform="rotate(-90 20.0124 554.04)" stroke="#1C1C1C"/>
<ellipse cx="70.6803" cy="504.387" rx="50.6667" ry="50.6667" transform="rotate(-90 70.6803 504.387)" stroke="#1C1C1C"/>
<ellipse cx="225.592" cy="554.04" rx="50.6667" ry="50.6667" transform="rotate(-90 225.592 554.04)" stroke="#1C1C1C"/>
<ellipse cx="276.26" cy="504.387" rx="50.6667" ry="50.6667" transform="rotate(-90 276.26 504.387)" stroke="#1C1C1C"/>
<ellipse cx="20.0124" cy="451.44" rx="50.6667" ry="50.6667" transform="rotate(-90 20.0124 451.44)" stroke="#1C1C1C"/>
<ellipse cx="70.6803" cy="401.787" rx="50.6667" ry="50.6667" transform="rotate(-90 70.6803 401.787)" stroke="#1C1C1C"/>
<ellipse cx="225.592" cy="451.44" rx="50.6667" ry="50.6667" transform="rotate(-90 225.592 451.44)" stroke="#1C1C1C"/>
<ellipse cx="276.26" cy="401.787" rx="50.6667" ry="50.6667" transform="rotate(-90 276.26 401.787)" stroke="#1C1C1C"/>
<ellipse cx="20.0124" cy="348.84" rx="50.6667" ry="50.6667" transform="rotate(-90 20.0124 348.84)" stroke="#1C1C1C"/>
<ellipse cx="70.6803" cy="299.187" rx="50.6667" ry="50.6667" transform="rotate(-90 70.6803 299.187)" stroke="#1C1C1C"/>
<ellipse cx="225.592" cy="348.84" rx="50.6667" ry="50.6667" transform="rotate(-90 225.592 348.84)" stroke="#1C1C1C"/>
<ellipse cx="276.26" cy="299.187" rx="50.6667" ry="50.6667" transform="rotate(-90 276.26 299.187)" stroke="#1C1C1C"/>
<ellipse cx="20.0124" cy="246.24" rx="50.6667" ry="50.6667" transform="rotate(-90 20.0124 246.24)" stroke="#1C1C1C"/>
<ellipse cx="70.6803" cy="196.587" rx="50.6667" ry="50.6667" transform="rotate(-90 70.6803 196.587)" stroke="#1C1C1C"/>
<ellipse cx="225.592" cy="246.24" rx="50.6667" ry="50.6667" transform="rotate(-90 225.592 246.24)" stroke="#1C1C1C"/>
<ellipse cx="276.26" cy="196.587" rx="50.6667" ry="50.6667" transform="rotate(-90 276.26 196.587)" stroke="#1C1C1C"/>
<ellipse cx="20.0124" cy="143.64" rx="50.6667" ry="50.6667" transform="rotate(-90 20.0124 143.64)" stroke="#1C1C1C"/>
<ellipse cx="70.6803" cy="93.9866" rx="50.6667" ry="50.6667" transform="rotate(-90 70.6803 93.9866)" stroke="#1C1C1C"/>
<ellipse cx="225.592" cy="143.64" rx="50.6667" ry="50.6667" transform="rotate(-90 225.592 143.64)" stroke="#1C1C1C"/>
<ellipse cx="276.26" cy="93.9866" rx="50.6667" ry="50.6667" transform="rotate(-90 276.26 93.9866)" stroke="#1C1C1C"/>
<ellipse cx="20.0124" cy="41.04" rx="50.6667" ry="50.6667" transform="rotate(-90 20.0124 41.04)" stroke="#1C1C1C"/>
<ellipse cx="70.6803" cy="-8.61333" rx="50.6667" ry="50.6667" transform="rotate(-90 70.6803 -8.61333)" stroke="#1C1C1C"/>
<ellipse cx="225.592" cy="41.04" rx="50.6667" ry="50.6667" transform="rotate(-90 225.592 41.04)" stroke="#1C1C1C"/>
<ellipse cx="276.26" cy="-8.61333" rx="50.6667" ry="50.6667" transform="rotate(-90 276.26 -8.61333)" stroke="#1C1C1C"/>
<ellipse cx="20.0124" cy="656.64" rx="50.6667" ry="50.6667" transform="rotate(-90 20.0124 656.64)" stroke="#1C1C1C"/>
<ellipse cx="70.6803" cy="606.987" rx="50.6667" ry="50.6667" transform="rotate(-90 70.6803 606.987)" stroke="#1C1C1C"/>
<ellipse cx="225.592" cy="656.64" rx="50.6667" ry="50.6667" transform="rotate(-90 225.592 656.64)" stroke="#1C1C1C"/>
<ellipse cx="276.26" cy="606.987" rx="50.6667" ry="50.6667" transform="rotate(-90 276.26 606.987)" stroke="#1C1C1C"/>
<ellipse cx="-31.9193" cy="504.387" rx="50.6667" ry="50.6667" transform="rotate(-90 -31.9193 504.387)" stroke="#1C1C1C"/>
<ellipse cx="122.993" cy="554.04" rx="50.6667" ry="50.6667" transform="rotate(-90 122.993 554.04)" stroke="#1C1C1C"/>
<ellipse cx="173.661" cy="504.387" rx="50.6667" ry="50.6667" transform="rotate(-90 173.661 504.387)" stroke="#1C1C1C"/>
<ellipse cx="-31.9193" cy="401.787" rx="50.6667" ry="50.6667" transform="rotate(-90 -31.9193 401.787)" stroke="#1C1C1C"/>
<ellipse cx="122.993" cy="451.44" rx="50.6667" ry="50.6667" transform="rotate(-90 122.993 451.44)" stroke="#1C1C1C"/>
<ellipse cx="173.661" cy="401.787" rx="50.6667" ry="50.6667" transform="rotate(-90 173.661 401.787)" stroke="#1C1C1C"/>
<ellipse cx="-31.9193" cy="299.187" rx="50.6667" ry="50.6667" transform="rotate(-90 -31.9193 299.187)" stroke="#1C1C1C"/>
<ellipse cx="122.993" cy="348.84" rx="50.6667" ry="50.6667" transform="rotate(-90 122.993 348.84)" stroke="#1C1C1C"/>
<ellipse cx="173.661" cy="299.187" rx="50.6667" ry="50.6667" transform="rotate(-90 173.661 299.187)" stroke="#1C1C1C"/>
<ellipse cx="-31.9193" cy="196.587" rx="50.6667" ry="50.6667" transform="rotate(-90 -31.9193 196.587)" stroke="#1C1C1C"/>
<ellipse cx="122.993" cy="246.24" rx="50.6667" ry="50.6667" transform="rotate(-90 122.993 246.24)" stroke="#1C1C1C"/>
<ellipse cx="173.661" cy="196.587" rx="50.6667" ry="50.6667" transform="rotate(-90 173.661 196.587)" stroke="#1C1C1C"/>
<ellipse cx="-31.9193" cy="93.9866" rx="50.6667" ry="50.6667" transform="rotate(-90 -31.9193 93.9866)" stroke="#1C1C1C"/>
<ellipse cx="122.993" cy="143.64" rx="50.6667" ry="50.6667" transform="rotate(-90 122.993 143.64)" stroke="#1C1C1C"/>
<ellipse cx="173.661" cy="93.9866" rx="50.6667" ry="50.6667" transform="rotate(-90 173.661 93.9866)" stroke="#1C1C1C"/>
<ellipse cx="-31.9193" cy="-8.61333" rx="50.6667" ry="50.6667" transform="rotate(-90 -31.9193 -8.61333)" stroke="#1C1C1C"/>
<ellipse cx="122.993" cy="41.04" rx="50.6667" ry="50.6667" transform="rotate(-90 122.993 41.04)" stroke="#1C1C1C"/>
<ellipse cx="173.661" cy="-8.61333" rx="50.6667" ry="50.6667" transform="rotate(-90 173.661 -8.61333)" stroke="#1C1C1C"/>
<ellipse cx="-31.9193" cy="606.987" rx="50.6667" ry="50.6667" transform="rotate(-90 -31.9193 606.987)" stroke="#1C1C1C"/>
<ellipse cx="122.993" cy="656.64" rx="50.6667" ry="50.6667" transform="rotate(-90 122.993 656.64)" stroke="#1C1C1C"/>
<ellipse cx="173.661" cy="606.987" rx="50.6667" ry="50.6667" transform="rotate(-90 173.661 606.987)" stroke="#1C1C1C"/>
<ellipse cx="328.194" cy="554.04" rx="50.6667" ry="50.6667" transform="rotate(-90 328.194 554.04)" stroke="#1C1C1C"/>
<ellipse cx="378.86" cy="504.387" rx="50.6667" ry="50.6667" transform="rotate(-90 378.86 504.387)" stroke="#1C1C1C"/>
<ellipse cx="328.194" cy="451.44" rx="50.6667" ry="50.6667" transform="rotate(-90 328.194 451.44)" stroke="#1C1C1C"/>
<ellipse cx="378.86" cy="401.787" rx="50.6667" ry="50.6667" transform="rotate(-90 378.86 401.787)" stroke="#1C1C1C"/>
<ellipse cx="328.194" cy="348.84" rx="50.6667" ry="50.6667" transform="rotate(-90 328.194 348.84)" stroke="#1C1C1C"/>
<ellipse cx="378.86" cy="299.187" rx="50.6667" ry="50.6667" transform="rotate(-90 378.86 299.187)" stroke="#1C1C1C"/>
<ellipse cx="328.194" cy="246.24" rx="50.6667" ry="50.6667" transform="rotate(-90 328.194 246.24)" stroke="#1C1C1C"/>
<ellipse cx="378.86" cy="196.587" rx="50.6667" ry="50.6667" transform="rotate(-90 378.86 196.587)" stroke="#1C1C1C"/>
<ellipse cx="328.194" cy="143.64" rx="50.6667" ry="50.6667" transform="rotate(-90 328.194 143.64)" stroke="#1C1C1C"/>
<ellipse cx="378.86" cy="93.9866" rx="50.6667" ry="50.6667" transform="rotate(-90 378.86 93.9866)" stroke="#1C1C1C"/>
<ellipse cx="328.194" cy="41.04" rx="50.6667" ry="50.6667" transform="rotate(-90 328.194 41.04)" stroke="#1C1C1C"/>
<ellipse cx="378.86" cy="-8.61333" rx="50.6667" ry="50.6667" transform="rotate(-90 378.86 -8.61333)" stroke="#1C1C1C"/>
<ellipse cx="328.194" cy="656.64" rx="50.6667" ry="50.6667" transform="rotate(-90 328.194 656.64)" stroke="#1C1C1C"/>
<ellipse cx="378.86" cy="606.987" rx="50.6667" ry="50.6667" transform="rotate(-90 378.86 606.987)" stroke="#1C1C1C"/>
</g>
<g clip-path="url(#clip1_801_3)">
<rect width="608" height="342" transform="matrix(-4.37114e-08 1 1 4.37114e-08 0 603)" fill="black"/>
<ellipse cx="50.6667" cy="50.6667" rx="50.6667" ry="50.6667" transform="matrix(-4.37114e-08 1 1 4.37114e-08 -30.6543 606.293)" stroke="#1C1C1C"/>
<ellipse cx="50.6667" cy="50.6667" rx="50.6667" ry="50.6667" transform="matrix(-4.37114e-08 1 1 4.37114e-08 20.0137 655.947)" stroke="#1C1C1C"/>
<ellipse cx="50.6667" cy="50.6667" rx="50.6667" ry="50.6667" transform="matrix(-4.37114e-08 1 1 4.37114e-08 174.926 606.293)" stroke="#1C1C1C"/>
<ellipse cx="50.6667" cy="50.6667" rx="50.6667" ry="50.6667" transform="matrix(-4.37114e-08 1 1 4.37114e-08 225.594 655.947)" stroke="#1C1C1C"/>
<ellipse cx="50.6667" cy="50.6667" rx="50.6667" ry="50.6667" transform="matrix(-4.37114e-08 1 1 4.37114e-08 -30.6543 708.893)" stroke="#1C1C1C"/>
<ellipse cx="50.6667" cy="50.6667" rx="50.6667" ry="50.6667" transform="matrix(-4.37114e-08 1 1 4.37114e-08 20.0137 758.547)" stroke="#1C1C1C"/>
<ellipse cx="50.6667" cy="50.6667" rx="50.6667" ry="50.6667" transform="matrix(-4.37114e-08 1 1 4.37114e-08 174.926 708.893)" stroke="#1C1C1C"/>
<ellipse cx="50.6667" cy="50.6667" rx="50.6667" ry="50.6667" transform="matrix(-4.37114e-08 1 1 4.37114e-08 225.594 758.547)" stroke="#1C1C1C"/>
<ellipse cx="50.6667" cy="50.6667" rx="50.6667" ry="50.6667" transform="matrix(-4.37114e-08 1 1 4.37114e-08 -30.6543 811.493)" stroke="#1C1C1C"/>
<ellipse cx="50.6667" cy="50.6667" rx="50.6667" ry="50.6667" transform="matrix(-4.37114e-08 1 1 4.37114e-08 20.0137 861.147)" stroke="#1C1C1C"/>
<ellipse cx="50.6667" cy="50.6667" rx="50.6667" ry="50.6667" transform="matrix(-4.37114e-08 1 1 4.37114e-08 174.926 811.493)" stroke="#1C1C1C"/>
<ellipse cx="50.6667" cy="50.6667" rx="50.6667" ry="50.6667" transform="matrix(-4.37114e-08 1 1 4.37114e-08 225.594 861.147)" stroke="#1C1C1C"/>
<ellipse cx="50.6667" cy="50.6667" rx="50.6667" ry="50.6667" transform="matrix(-4.37114e-08 1 1 4.37114e-08 -30.6543 914.093)" stroke="#1C1C1C"/>
<ellipse cx="50.6667" cy="50.6667" rx="50.6667" ry="50.6667" transform="matrix(-4.37114e-08 1 1 4.37114e-08 20.0137 963.747)" stroke="#1C1C1C"/>
<ellipse cx="50.6667" cy="50.6667" rx="50.6667" ry="50.6667" transform="matrix(-4.37114e-08 1 1 4.37114e-08 174.926 914.093)" stroke="#1C1C1C"/>
<ellipse cx="50.6667" cy="50.6667" rx="50.6667" ry="50.6667" transform="matrix(-4.37114e-08 1 1 4.37114e-08 225.594 963.747)" stroke="#1C1C1C"/>
<ellipse cx="50.6667" cy="50.6667" rx="50.6667" ry="50.6667" transform="matrix(-4.37114e-08 1 1 4.37114e-08 -30.6543 1016.69)" stroke="#1C1C1C"/>
<ellipse cx="50.6667" cy="50.6667" rx="50.6667" ry="50.6667" transform="matrix(-4.37114e-08 1 1 4.37114e-08 20.0137 1066.35)" stroke="#1C1C1C"/>
<ellipse cx="50.6667" cy="50.6667" rx="50.6667" ry="50.6667" transform="matrix(-4.37114e-08 1 1 4.37114e-08 174.926 1016.69)" stroke="#1C1C1C"/>
<ellipse cx="50.6667" cy="50.6667" rx="50.6667" ry="50.6667" transform="matrix(-4.37114e-08 1 1 4.37114e-08 225.594 1066.35)" stroke="#1C1C1C"/>
<ellipse cx="50.6667" cy="50.6667" rx="50.6667" ry="50.6667" transform="matrix(-4.37114e-08 1 1 4.37114e-08 -30.6543 503.693)" stroke="#1C1C1C"/>
<ellipse cx="50.6667" cy="50.6667" rx="50.6667" ry="50.6667" transform="matrix(-4.37114e-08 1 1 4.37114e-08 20.0137 553.347)" stroke="#1C1C1C"/>
<ellipse cx="50.6667" cy="50.6667" rx="50.6667" ry="50.6667" transform="matrix(-4.37114e-08 1 1 4.37114e-08 174.926 503.693)" stroke="#1C1C1C"/>
<ellipse cx="50.6667" cy="50.6667" rx="50.6667" ry="50.6667" transform="matrix(-4.37114e-08 1 1 4.37114e-08 225.594 553.347)" stroke="#1C1C1C"/>
<ellipse cx="50.6667" cy="50.6667" rx="50.6667" ry="50.6667" transform="matrix(-4.37114e-08 1 1 4.37114e-08 -82.5859 655.947)" stroke="#1C1C1C"/>
<ellipse cx="50.6667" cy="50.6667" rx="50.6667" ry="50.6667" transform="matrix(-4.37114e-08 1 1 4.37114e-08 72.3262 606.293)" stroke="#1C1C1C"/>
<ellipse cx="50.6667" cy="50.6667" rx="50.6667" ry="50.6667" transform="matrix(-4.37114e-08 1 1 4.37114e-08 122.994 655.947)" stroke="#1C1C1C"/>
<ellipse cx="50.6667" cy="50.6667" rx="50.6667" ry="50.6667" transform="matrix(-4.37114e-08 1 1 4.37114e-08 -82.5859 758.547)" stroke="#1C1C1C"/>
<ellipse cx="50.6667" cy="50.6667" rx="50.6667" ry="50.6667" transform="matrix(-4.37114e-08 1 1 4.37114e-08 72.3262 708.893)" stroke="#1C1C1C"/>
<ellipse cx="50.6667" cy="50.6667" rx="50.6667" ry="50.6667" transform="matrix(-4.37114e-08 1 1 4.37114e-08 122.994 758.547)" stroke="#1C1C1C"/>
<ellipse cx="50.6667" cy="50.6667" rx="50.6667" ry="50.6667" transform="matrix(-4.37114e-08 1 1 4.37114e-08 -82.5859 861.147)" stroke="#1C1C1C"/>
<ellipse cx="50.6667" cy="50.6667" rx="50.6667" ry="50.6667" transform="matrix(-4.37114e-08 1 1 4.37114e-08 72.3262 811.493)" stroke="#1C1C1C"/>
<ellipse cx="50.6667" cy="50.6667" rx="50.6667" ry="50.6667" transform="matrix(-4.37114e-08 1 1 4.37114e-08 122.994 861.147)" stroke="#1C1C1C"/>
<ellipse cx="50.6667" cy="50.6667" rx="50.6667" ry="50.6667" transform="matrix(-4.37114e-08 1 1 4.37114e-08 -82.5859 963.747)" stroke="#1C1C1C"/>
<ellipse cx="50.6667" cy="50.6667" rx="50.6667" ry="50.6667" transform="matrix(-4.37114e-08 1 1 4.37114e-08 72.3262 914.093)" stroke="#1C1C1C"/>
<ellipse cx="50.6667" cy="50.6667" rx="50.6667" ry="50.6667" transform="matrix(-4.37114e-08 1 1 4.37114e-08 122.994 963.747)" stroke="#1C1C1C"/>
<ellipse cx="50.6667" cy="50.6667" rx="50.6667" ry="50.6667" transform="matrix(-4.37114e-08 1 1 4.37114e-08 -82.5859 1066.35)" stroke="#1C1C1C"/>
<ellipse cx="50.6667" cy="50.6667" rx="50.6667" ry="50.6667" transform="matrix(-4.37114e-08 1 1 4.37114e-08 72.3262 1016.69)" stroke="#1C1C1C"/>
<ellipse cx="50.6667" cy="50.6667" rx="50.6667" ry="50.6667" transform="matrix(-4.37114e-08 1 1 4.37114e-08 122.994 1066.35)" stroke="#1C1C1C"/>
<ellipse cx="50.6667" cy="50.6667" rx="50.6667" ry="50.6667" transform="matrix(-4.37114e-08 1 1 4.37114e-08 -82.5859 553.347)" stroke="#1C1C1C"/>
<ellipse cx="50.6667" cy="50.6667" rx="50.6667" ry="50.6667" transform="matrix(-4.37114e-08 1 1 4.37114e-08 72.3262 503.693)" stroke="#1C1C1C"/>
<ellipse cx="50.6667" cy="50.6667" rx="50.6667" ry="50.6667" transform="matrix(-4.37114e-08 1 1 4.37114e-08 122.994 553.347)" stroke="#1C1C1C"/>
<ellipse cx="50.6667" cy="50.6667" rx="50.6667" ry="50.6667" transform="matrix(-4.37114e-08 1 1 4.37114e-08 277.527 606.293)" stroke="#1C1C1C"/>
<ellipse cx="50.6667" cy="50.6667" rx="50.6667" ry="50.6667" transform="matrix(-4.37114e-08 1 1 4.37114e-08 328.193 655.947)" stroke="#1C1C1C"/>
<ellipse cx="50.6667" cy="50.6667" rx="50.6667" ry="50.6667" transform="matrix(-4.37114e-08 1 1 4.37114e-08 277.527 708.893)" stroke="#1C1C1C"/>
<ellipse cx="50.6667" cy="50.6667" rx="50.6667" ry="50.6667" transform="matrix(-4.37114e-08 1 1 4.37114e-08 328.193 758.547)" stroke="#1C1C1C"/>
<ellipse cx="50.6667" cy="50.6667" rx="50.6667" ry="50.6667" transform="matrix(-4.37114e-08 1 1 4.37114e-08 277.527 811.493)" stroke="#1C1C1C"/>
<ellipse cx="50.6667" cy="50.6667" rx="50.6667" ry="50.6667" transform="matrix(-4.37114e-08 1 1 4.37114e-08 328.193 861.147)" stroke="#1C1C1C"/>
<ellipse cx="50.6667" cy="50.6667" rx="50.6667" ry="50.6667" transform="matrix(-4.37114e-08 1 1 4.37114e-08 277.527 914.093)" stroke="#1C1C1C"/>
<ellipse cx="50.6667" cy="50.6667" rx="50.6667" ry="50.6667" transform="matrix(-4.37114e-08 1 1 4.37114e-08 328.193 963.747)" stroke="#1C1C1C"/>
<ellipse cx="50.6667" cy="50.6667" rx="50.6667" ry="50.6667" transform="matrix(-4.37114e-08 1 1 4.37114e-08 277.527 1016.69)" stroke="#1C1C1C"/>
<ellipse cx="50.6667" cy="50.6667" rx="50.6667" ry="50.6667" transform="matrix(-4.37114e-08 1 1 4.37114e-08 328.193 1066.35)" stroke="#1C1C1C"/>
<ellipse cx="50.6667" cy="50.6667" rx="50.6667" ry="50.6667" transform="matrix(-4.37114e-08 1 1 4.37114e-08 277.527 503.693)" stroke="#1C1C1C"/>
<ellipse cx="50.6667" cy="50.6667" rx="50.6667" ry="50.6667" transform="matrix(-4.37114e-08 1 1 4.37114e-08 328.193 553.347)" stroke="#1C1C1C"/>
</g>
<defs>
<clipPath id="clip0_801_3">
<rect width="608" height="342" fill="white" transform="translate(0 608) rotate(-90)"/>
</clipPath>
<clipPath id="clip1_801_3">
<rect width="608" height="342" fill="white" transform="matrix(-4.37114e-08 1 1 4.37114e-08 0 603)"/>
</clipPath>
</defs>
</svg>
