<svg width="1920" height="1080" viewBox="0 0 1920 1080" fill="none" xmlns="http://www.w3.org/2000/svg">
<path d="M202.546 21.2693V57.385L102.942 114.89V78.7766L202.546 21.2693ZM239.598 1.5453L270.873 19.603V134.614L239.598 116.559V1.5453ZM407.529 21.2693V57.385L307.924 114.89V78.7766L407.529 21.2693ZM444.58 1.5453L475.856 19.603V134.614L444.58 116.559V1.5453ZM612.512 21.2693V57.385L512.907 114.89V78.7766L612.512 21.2693ZM649.563 1.5453L680.839 19.603V134.614L649.563 116.559V1.5453ZM817.495 21.2693V57.385L717.89 114.89V78.7766L817.495 21.2693ZM854.547 1.5453L885.823 19.603V134.614L854.547 116.559V1.5453ZM988.315 312.135L957.037 294.077V179.066L988.315 197.124V312.135ZM986.869 354.085L955.591 372.142L855.989 314.636L887.266 296.579L986.869 354.085ZM988.315 667.172L957.037 649.119V534.107L988.315 552.163V667.172ZM986.869 709.12L955.591 727.187L855.989 669.672L887.266 651.62L986.869 709.12ZM954.15 887.48V1002.49L922.873 984.429V869.427L954.15 887.48ZM988.315 1022.22L957.037 1004.17V889.151L988.315 907.204V1022.22ZM784.774 1062.5L685.17 1005L716.447 986.93L816.052 1044.44L784.774 1062.5ZM579.791 1062.5L480.188 1005L511.463 986.93L611.067 1044.44L579.791 1062.5ZM374.808 1062.5L275.205 1005L306.48 986.93L406.084 1044.44L374.808 1062.5ZM169.826 1062.5L70.2207 1005L101.497 986.93L201.102 1044.44L169.826 1062.5ZM-67.8775 889.151L-36.6008 907.204V1022.22L-67.8775 1004.17V889.151ZM-66.4346 847.203L-35.1582 829.137L64.4468 886.651L33.1701 904.703L-66.4346 847.203ZM-67.8775 534.107L-36.6008 552.163V667.172L-67.8775 649.119V534.107ZM-66.4333 492.155L-35.1582 474.1L64.4468 531.605L33.1701 549.663L-66.4333 492.155ZM-67.8775 179.066L-36.6008 197.124V312.135L-67.8775 294.077V179.066ZM-66.4333 137.116L-35.1582 119.059L64.4468 176.565L33.1701 194.621L-66.4333 137.116ZM34.6143 1.5453L65.8894 19.603V134.614L34.6143 116.559V1.5453ZM202.546 96.8334L102.942 154.338V118.225L202.546 60.7189V96.8334ZM303.593 156.841L272.316 174.897L172.714 117.392L203.99 99.3354L303.593 156.841ZM305.037 154.338L273.76 136.283V21.2693L305.037 39.327V154.338ZM407.529 96.8334L307.924 154.338V118.225L407.529 60.7189V96.8334ZM508.576 156.841L477.3 174.897L377.696 117.392L408.973 99.3354L508.576 156.841ZM510.02 154.338L478.744 136.283V21.2693L510.02 39.327V154.338ZM612.512 96.8334L512.907 154.338V118.225L612.512 60.7189V96.8334ZM713.558 156.841L682.283 174.897L582.68 117.392L613.954 99.3354L713.558 156.841ZM715.003 154.338L683.727 136.283V21.2693L715.003 39.327V154.338ZM817.495 96.8334L717.89 154.338V118.225L817.495 60.7189V96.8334ZM918.542 156.841L887.266 174.897L787.662 117.392L818.939 99.3354L918.542 156.841ZM919.986 154.338L888.71 136.283V21.2693L919.986 39.327V154.338ZM922.873 274.353V159.342L954.15 177.399V292.41L922.873 274.353ZM921.429 391.866L821.827 334.36L853.102 316.305L952.704 373.809L921.429 391.866ZM919.986 509.38L888.71 491.322V376.311L919.986 394.368V509.38ZM922.873 629.395V514.383L954.15 532.439V647.447L922.873 629.395ZM921.429 746.911L821.827 689.396L853.102 671.344L952.704 728.844L921.429 746.911ZM919.986 864.426L888.71 846.36V731.345L919.986 749.411V864.426ZM-33.7127 1023.89V908.876L-2.436 926.928V1041.94L-33.7127 1023.89ZM-0.991798 809.413L98.6116 866.927L67.3352 884.979L-32.2685 827.479L-0.991798 809.413ZM31.7275 709.963V824.978L0.450806 806.912V691.897L31.7275 709.963ZM-0.991798 454.376L98.6116 511.881L67.3352 529.937L-32.2685 472.431L-0.991798 454.376ZM0.450806 336.862L31.7275 354.92V469.93L0.450806 451.874V336.862ZM-0.991798 99.3354L98.6116 156.841L67.3352 174.897L-32.2685 117.392L-0.991798 99.3354ZM100.056 154.338L68.7794 136.283V21.2693L100.056 39.327V154.338ZM238.155 194.621L138.552 137.116L169.827 119.059L269.43 176.565L238.155 194.621ZM443.138 194.621L343.533 137.116L374.809 119.059L474.414 176.565L443.138 194.621ZM648.121 194.621L548.516 137.116L579.793 119.059L679.396 176.565L648.121 194.621ZM853.104 194.621L753.5 137.116L784.776 119.059L884.38 176.565L853.104 194.621ZM820.383 295.746L919.988 238.24V274.353L820.383 331.859V295.746ZM851.659 469.93L820.383 451.874V336.862L851.659 354.92V469.93ZM854.548 471.598V356.587L885.824 374.644V489.656L854.548 471.598ZM918.543 511.881L887.267 529.937L787.663 472.431L818.94 454.376L918.543 511.881ZM919.988 550.496L820.383 607.999V571.888L853.814 552.587C853.815 552.587 853.815 552.587 853.815 552.586L887.978 532.863C887.978 532.862 887.978 532.862 887.98 532.862L919.988 514.383V550.496ZM820.383 650.791L919.988 593.28V629.395L820.383 686.896V650.791ZM851.659 824.978L820.383 806.912V691.897L851.659 709.963V824.978ZM854.548 826.636V711.621L885.824 729.687V844.702L854.548 826.636ZM919.988 905.532L820.383 963.047V926.928L853.814 907.632H853.816L887.978 887.908H887.98L919.988 869.427V905.532ZM786.219 908.876L817.496 926.928V1041.94L786.219 1023.89V908.876ZM752.056 1004.17V889.151L783.331 907.204V1022.22L752.056 1004.17ZM615.4 1005.82L715.004 948.324V984.429L615.4 1041.94V1005.82ZM581.237 908.876L612.513 926.928V1041.94L581.237 1023.89V908.876ZM547.072 1004.17V889.151L578.349 907.204V1022.22L547.072 1004.17ZM410.417 1005.82L510.022 948.324V984.429L410.417 1041.94V1005.82ZM376.253 908.876L407.53 926.928V1041.94L376.253 1023.89V908.876ZM342.089 1004.17V889.151L373.365 907.204V1022.22L342.089 1004.17ZM205.435 1005.82L305.038 948.324V984.429L205.435 1041.94V1005.82ZM171.271 908.876L202.548 926.928V1041.94L171.271 1023.89V908.876ZM137.108 1004.17V889.151L168.384 907.204V1022.22L137.108 1004.17ZM0.450806 1005.82L100.056 948.324V984.429L0.450806 1041.94V1005.82ZM100.056 944.981L0.450806 1002.49V966.376L100.056 908.876V944.981ZM65.8907 729.687V844.702L34.6156 826.636V711.621L65.8907 729.687ZM33.1714 671.344L132.775 728.844L101.499 746.911L1.89501 689.396L33.1714 671.344ZM0.450806 650.791L100.056 593.28V629.395L0.450806 686.896V650.791ZM100.056 589.944L0.450806 647.447V611.342L100.056 553.832V589.944ZM68.7794 491.322V376.311L100.056 394.368V509.38L68.7794 491.322ZM65.8907 374.644V489.656L34.6156 471.598V356.587L65.8907 374.644ZM33.1714 316.305L132.775 373.809L101.499 391.866L1.89501 334.36L33.1714 316.305ZM0.450806 295.746L100.056 238.24V274.353L0.450806 331.859V295.746ZM100.056 234.903L0.450806 292.41V256.298L100.056 198.79V234.903ZM305.038 234.903L205.435 292.41V256.298L305.038 198.79V234.903ZM510.022 234.903L410.417 292.41V256.298L510.022 198.79V234.903ZM715.004 234.903L615.4 292.41V256.298L715.004 198.79V234.903ZM786.219 313.803V198.79L817.496 216.848V331.859L786.219 313.803ZM818.94 569.387L719.335 511.881L750.612 493.824L850.217 551.33L818.94 569.387ZM786.219 668.843V553.832L817.496 571.888V686.896L786.219 668.843ZM717.891 869.427L749.169 887.48V1002.49L717.891 984.429V869.427ZM615.4 966.376L715.004 908.876V944.981L615.4 1002.49V966.376ZM615.4 926.928L648.83 907.632H648.834L682.995 887.908H682.996L715.004 869.427V905.532L615.4 963.047V926.928ZM512.909 869.427L544.185 887.48V1002.49L512.909 984.429V869.427ZM410.417 966.376L510.022 908.876V944.981L410.417 1002.49V966.376ZM410.417 926.928L443.846 907.632H443.85L478.013 887.908H478.014L510.022 869.427V905.532L410.417 963.047V926.928ZM307.925 869.427L339.202 887.48V1002.49L307.925 984.429V869.427ZM205.435 966.376L305.038 908.876V944.981L205.435 1002.49V966.376ZM205.435 926.928L238.865 907.632H238.868L273.029 887.908H273.03L305.038 869.427V905.532L205.435 963.047V926.928ZM102.943 869.427L134.219 887.48V1002.49L102.943 984.429V869.427ZM170.538 710.378H170.54L202.548 691.897V728.016L102.943 785.53V749.411L170.538 710.378ZM67.3352 651.62L166.94 709.12L135.663 727.187L36.0598 669.672L67.3352 651.62ZM134.219 532.439V647.447L102.943 629.395V514.383L134.219 532.439ZM102.943 473.266L202.548 415.76V451.874L102.943 509.38V473.266ZM170.538 355.342H170.54L202.548 336.862V372.975L102.943 430.482V394.368L170.538 355.342ZM67.3352 296.579L166.94 354.085L135.663 372.142L36.0598 314.636L67.3352 296.579ZM134.219 292.41L102.943 274.353V159.342L134.219 177.399V292.41ZM168.384 312.135L137.108 294.077V179.066L168.384 197.124V312.135ZM202.548 331.859L171.271 313.803V198.79L202.548 216.848V331.859ZM305.038 274.353L205.435 331.859V295.746L305.038 238.24V274.353ZM339.202 292.41L307.925 274.353V159.342L339.202 177.399V292.41ZM373.365 312.135L342.089 294.077V179.066L373.365 197.124V312.135ZM407.53 331.859L376.253 313.803V198.79L407.53 216.848V331.859ZM510.022 274.353L410.417 331.859V295.746L510.022 238.24V274.353ZM544.185 292.41L512.909 274.353V159.342L544.185 177.399V292.41ZM578.349 312.135L547.072 294.077V179.066L578.349 197.124V312.135ZM612.513 331.859L581.237 313.803V198.79L612.513 216.848V331.859ZM715.004 274.353L615.4 331.859V295.746L715.004 238.24V274.353ZM749.169 292.41L717.891 274.353V159.342L749.169 177.399V292.41ZM752.056 294.077V179.066L783.331 197.124V312.135L752.056 294.077ZM784.776 352.418L685.172 294.912L716.448 276.855L816.053 334.36L784.776 352.418ZM817.496 372.975L717.891 430.482V394.368L751.322 375.066H751.324L785.487 355.342H785.488L817.496 336.862V372.975ZM717.891 509.38V473.266L817.496 415.76V451.874L717.891 509.38ZM749.169 647.447L717.891 629.395V514.383L749.169 532.439V647.447ZM752.056 649.119V534.107L783.331 552.163V667.172L752.056 649.119ZM784.776 707.462L685.172 649.948L716.448 631.896L816.053 689.396L784.776 707.462ZM817.496 728.016L717.891 785.53V749.411L751.322 730.102H751.324L785.487 710.378H785.488L817.496 691.897V728.016ZM717.891 864.426V828.308L817.496 770.807V806.912L717.891 864.426ZM102.942 828.308L202.546 770.807V806.912L102.942 864.426V828.308ZM202.546 767.464L102.942 824.978V788.859L202.546 731.345V767.464ZM168.383 552.163V667.172L137.106 649.119V534.107L168.383 552.163ZM135.662 493.824L235.266 551.33L203.99 569.387L104.386 511.881L135.662 493.824ZM716.446 391.866L616.843 334.36L648.119 316.305L747.723 373.809L716.446 391.866ZM716.446 746.909L616.843 689.395L648.119 671.343L747.723 728.843L716.446 746.909ZM236.71 709.962V824.977L205.433 806.911V691.896L236.71 709.962ZM238.864 552.586H238.865L273.026 532.862C273.027 532.861 273.027 532.861 273.029 532.861L305.037 514.382V550.495L205.433 607.998V571.886L238.864 552.586ZM169.826 474.099L269.429 531.604L238.154 549.662L138.551 492.154L169.826 474.099ZM205.433 336.86L236.71 354.918V469.929L205.433 451.873V336.86ZM238.154 316.303L337.756 373.808L306.48 391.864L206.878 334.358L238.154 316.303ZM374.808 352.416L275.205 294.91L306.48 276.854L406.084 334.358L374.808 352.416ZM443.136 316.303L542.74 373.808L511.463 391.864L411.86 334.358L443.136 316.303ZM579.791 352.416L480.188 294.91L511.463 276.854L611.067 334.358L579.791 352.416ZM646.676 469.929L615.399 451.873V336.86L646.676 354.918V469.929ZM680.839 489.655L649.563 471.597V356.586L680.839 374.642V489.655ZM715.003 509.379L683.727 491.321V376.31L715.003 394.366V509.379ZM715.003 550.495L615.399 607.998V571.886L648.829 552.586C648.83 552.586 648.83 552.586 648.831 552.585L682.993 532.862C682.993 532.861 682.995 532.861 682.995 532.861L715.003 514.382V550.495ZM715.003 629.394L615.399 686.894V650.789L715.003 593.279V629.394ZM478.744 731.344L510.02 749.41V864.425L478.744 846.359V731.344ZM444.58 711.62L475.856 729.686V844.701L444.58 826.635V711.62ZM410.416 691.896L441.692 709.962V824.977L410.416 806.911V691.896ZM273.76 731.344L305.037 749.41V864.425L273.76 846.359V731.344ZM270.873 729.686V844.701L239.598 826.635V711.62L270.873 729.686ZM238.154 671.343L337.756 728.843L306.48 746.909L206.878 689.395L238.154 671.343ZM205.433 650.789L305.037 593.279V629.394L205.433 686.894V650.789ZM305.037 589.943L205.433 647.446V611.341L305.037 553.831V589.943ZM305.037 509.379L273.76 491.321V376.31L305.037 394.366V509.379ZM441.692 469.929L410.416 451.873V336.86L441.692 354.918V469.929ZM475.856 489.655L444.58 471.597V356.586L475.856 374.642V489.655ZM510.02 509.379L478.744 491.321V376.31L510.02 394.366V509.379ZM613.954 569.386L514.352 511.88L545.628 493.823L645.231 551.329L613.954 569.386ZM612.512 728.014L512.907 785.528V749.41L546.338 730.1H546.34L580.502 710.376H580.503L612.512 691.896V728.014ZM512.907 788.858L612.512 731.344V767.463L512.907 824.977V788.858ZM272.316 651.618L371.92 709.119L340.644 727.185L241.042 669.671L272.316 651.618ZM339.2 532.438V647.446L307.924 629.394V514.382L339.2 532.438ZM407.529 412.423L307.924 469.929V433.815L407.529 376.31V412.423ZM508.576 511.88L477.3 529.936L377.696 472.43L408.973 454.375L508.576 511.88ZM612.512 412.423L512.907 469.929V433.815L612.512 376.31V412.423ZM612.512 451.873L512.907 509.379V473.264L612.512 415.758V451.873ZM544.184 647.446L512.907 629.394V514.382L544.184 532.438V647.446ZM578.347 667.17L547.071 649.118V534.106L578.347 552.162V667.17ZM612.512 686.894L581.236 668.842V553.831L612.512 571.886V686.894ZM373.364 552.162V667.17L342.087 649.118V534.106L373.364 552.162ZM340.644 493.823L440.248 551.329L408.973 569.386L309.368 511.88L340.644 493.823ZM443.136 549.662L343.532 492.154L374.808 474.099L474.413 531.604L443.136 549.662ZM410.416 650.789L510.02 593.279V629.394L410.416 686.894V650.789ZM510.02 589.943L410.416 647.446V611.341L510.02 553.831V589.943ZM376.252 668.842V553.831L407.529 571.886V686.894L376.252 668.842ZM478.013 532.861L510.02 514.382V550.495L410.416 607.998V571.886L443.846 552.586H443.848L478.011 532.862C478.011 532.861 478.011 532.861 478.013 532.861ZM307.924 473.264L407.529 415.758V451.873L307.924 509.379V473.264ZM374.808 707.461L275.205 649.947L306.48 631.894L406.084 689.395L374.808 707.461ZM545.628 727.185L446.023 669.671L477.3 651.618L576.903 709.119L545.628 727.185ZM579.791 707.461L480.188 649.947L511.463 631.894L611.067 689.395L579.791 707.461ZM407.529 728.014L307.924 785.528V749.41L341.354 730.1H341.356L375.518 710.376H375.521L407.529 691.896V728.014ZM307.924 788.858L407.529 731.344V767.463L307.924 824.977V788.858ZM411.86 689.395L443.136 671.343L542.74 728.843L511.463 746.909L411.86 689.395ZM715.003 589.943L615.399 647.446V611.341L715.003 553.831V589.943ZM648.12 549.662L548.515 492.154L579.791 474.099L679.395 531.604L648.12 549.662ZM713.558 511.88L682.283 529.936L582.68 472.43L613.954 454.375L713.558 511.88ZM546.338 375.065H546.34L580.502 355.341C580.503 355.341 580.503 355.341 580.503 355.339L612.512 336.86V372.974L512.907 430.481V394.366L546.338 375.065ZM545.628 372.14L446.023 314.634L477.3 296.578L576.903 354.084L545.628 372.14ZM341.354 375.065H341.356L375.518 355.341C375.52 355.341 375.519 355.341 375.521 355.339L407.529 336.86V372.974L307.924 430.481V394.366L341.354 375.065ZM340.644 372.14L241.042 314.634L272.316 296.578L371.92 354.084L340.644 372.14ZM270.873 374.642V489.655L239.598 471.597V356.586L270.873 374.642ZM272.316 529.936L172.714 472.43L203.99 454.375L303.593 511.88L272.316 529.936ZM407.529 806.911L307.924 864.425V828.306L407.529 770.805V806.911ZM612.512 806.911L512.907 864.425V828.306L612.512 770.805V806.911ZM646.676 824.977L615.399 806.911V691.896L646.676 709.962V824.977ZM680.839 844.701L649.563 826.635V711.62L680.839 729.686V844.701ZM715.003 749.41V864.425L683.727 846.359V731.344L715.003 749.41ZM171.269 668.842V553.831L202.545 571.886V686.894L171.269 668.842ZM817.493 767.463L717.888 824.977V788.858L817.493 731.344V767.463ZM750.609 727.185L651.005 669.671L682.282 651.618L781.885 709.119L750.609 727.185ZM817.493 412.423L717.888 469.929V433.815L817.493 376.31V412.423ZM750.609 372.14L651.005 314.634L682.282 296.578L781.885 354.084L750.609 372.14ZM169.823 352.416L70.2194 294.91L101.495 276.854L201.099 334.358L169.823 352.416ZM102.939 433.815L202.543 376.31V412.423L102.939 469.929V433.815ZM169.823 707.461L70.2194 649.947L101.495 631.894L201.099 689.395L169.823 707.461ZM238.151 904.702L138.548 847.201L169.823 829.135L269.426 886.65L238.151 904.702ZM272.313 884.978L172.711 827.477L203.988 809.411L303.59 866.925L272.313 884.978ZM443.133 904.702L343.529 847.201L374.805 829.135L474.41 886.65L443.133 904.702ZM477.297 884.978L377.692 827.477L408.97 809.411L508.573 866.925L477.297 884.978ZM648.117 904.702L548.512 847.201L579.789 829.135L679.392 886.65L648.117 904.702ZM682.28 884.978L582.676 827.477L613.951 809.411L713.555 866.925L682.28 884.978ZM100.05 749.41V864.425L68.774 846.359V731.344L100.05 749.41ZM104.382 866.925L135.658 848.86L235.263 906.374L203.986 924.426L104.382 866.925ZM309.364 866.925L340.64 848.86L440.245 906.374L408.969 924.426L309.364 866.925ZM514.347 866.925L545.624 848.86L645.229 906.374L613.95 924.426L514.347 866.925ZM818.934 924.426L719.33 866.925L750.606 848.86L850.211 906.374L818.934 924.426ZM919.982 944.98L820.377 1002.49V966.375L919.982 908.874V944.98ZM853.098 904.702L753.495 847.201L784.771 829.135L884.375 886.65L853.098 904.702ZM887.262 884.978L787.658 827.477L818.934 809.411L918.538 866.925L887.262 884.978ZM919.982 589.943L820.377 647.446V611.341L919.982 553.831V589.943ZM853.098 549.662L753.495 492.154L784.771 474.099L884.375 531.604L853.098 549.662ZM919.982 234.902L820.377 292.408V256.296L919.982 198.789V234.902ZM750.606 138.782L850.211 196.288L818.934 214.345L719.33 156.84L750.606 138.782ZM545.624 138.782L645.227 196.288L613.95 214.345L514.347 156.84L545.624 138.782ZM340.64 138.782L440.244 196.288L408.969 214.345L309.364 156.84L340.64 138.782ZM135.658 138.782L235.261 196.288L203.986 214.345L104.382 156.84L135.658 138.782ZM919.982 984.429L820.377 1041.94V1005.82L919.982 948.323V984.429ZM887.974 177.82L919.982 159.341V195.454L820.377 252.96V216.847L853.808 197.544H853.809L887.972 177.82H887.974ZM682.99 177.82L714.998 159.341V195.454L615.395 252.96V216.847L648.824 197.546C648.826 197.544 648.826 197.544 648.827 197.544L682.989 177.82H682.99ZM478.008 177.82L510.016 159.341V195.454L410.411 252.96V216.847L443.842 197.544H443.843L478.007 177.82H478.008ZM273.025 177.82L305.032 159.341V195.454L205.429 252.96V216.847L238.859 197.544H238.861L273.022 177.82H273.025ZM33.8758 197.544H33.8771L68.0406 177.82H68.0419L100.05 159.341V195.454L0.44503 252.96V216.847L33.8758 197.544ZM-33.7185 313.802V198.789L-2.44178 216.847V331.858L-33.7185 313.802ZM33.8758 552.586C33.8771 552.586 33.8771 552.586 33.8771 552.585L68.0406 532.862C68.0406 532.861 68.0406 532.861 68.0419 532.861L100.05 514.382V550.495L0.44503 607.998V571.887L33.8758 552.586ZM-33.7185 668.842V553.831L-2.44178 571.887V686.895L-33.7185 668.842ZM33.8758 907.631H33.8784L100.05 869.426V905.532L0.44503 963.046V926.927L33.8758 907.631ZM102.937 39.3264L136.369 20.025V20.0238L170.532 0.301037L170.534 0.299432L171.053 0H165.277L135.658 17.102L106.038 0H100.262L132.769 18.7692L101.493 36.826L37.7097 0H31.7217V114.889L0.44503 96.8327V0H-2.44178V17.9348L-80.8984 63.2321V66.5657L-2.44178 21.2687V57.3844L-80.8984 102.68V106.014L-2.44178 60.7183V96.8327L-80.8984 142.13V145.464L-69.3249 138.783L30.2775 196.289L-0.997574 214.346L-80.8984 168.215V171.552L-70.7704 177.398V292.409L-80.8984 286.563V289.896L-3.88599 334.359L-35.1627 352.417L-80.8984 326.011V329.346L-38.0498 354.085L-69.3262 372.141L-80.8984 365.46V368.794L-72.2146 373.809L-80.8984 378.822V382.158L-34.4512 355.341C-34.4512 355.341 -34.4499 355.341 -34.4499 355.34L-2.44178 336.861V372.974L-80.8984 418.272V421.606L-2.44178 376.311V412.424L-80.8984 457.72V461.056L-2.44178 415.759V451.873L-80.8984 497.169V500.506L-69.3249 493.823L30.2775 551.33L-0.997574 569.386L-80.8984 523.256V526.591L-70.7704 532.439V647.447L-80.8984 641.603V644.933L-3.88599 689.396L-35.1627 707.462L-80.8984 681.052V684.381L-38.0498 709.12L-69.3262 727.186L-80.8984 720.5V723.843L-72.2146 728.844L-80.8984 733.858V737.202L-34.4512 710.377H-34.4499L-2.44178 691.896V728.015L-80.8984 773.307V776.65L-2.44178 731.345V767.463L-80.8984 812.768V816.098L-2.44178 770.806V806.911L-80.8984 852.217V855.546L-69.3249 848.86L30.2775 906.374L-0.997574 924.427L-80.8984 878.293V881.636L-70.7704 887.479V1002.49L-80.8984 996.651V999.98L-3.88599 1044.44L-35.1627 1062.5L-80.8984 1036.1V1039.43L-38.0498 1064.17L-65.4801 1080H-59.7049L-34.4537 1065.42H-34.4473L-2.44178 1046.94V1080H0.44503V1046.94L31.7217 1065V1080H34.6098V1066.67L57.7078 1080H63.4821L1.88924 1044.44L33.1656 1026.39L126.035 1080H131.812L36.0527 1024.72L67.3294 1006.67L166.934 1064.17L139.505 1080H145.279L170.53 1065.42H170.537L202.542 1046.94V1080H205.429V1046.94L236.705 1065V1080H239.594V1066.67L262.692 1080H268.464L206.873 1044.44L238.149 1026.39L331.017 1080H336.793L241.037 1024.72L272.312 1006.67L371.916 1064.17L344.487 1080H350.261L375.511 1065.42H375.518L407.524 1046.94V1080H410.411V1046.94L441.688 1065V1080H444.576V1066.67L467.674 1080H473.449L411.855 1044.44L443.132 1026.39L536.001 1080H541.776L446.019 1024.72L477.295 1006.67L576.899 1064.17L549.47 1080H555.245L580.494 1065.42H580.501L612.508 1046.94V1080H615.395V1046.94L646.671 1065V1080H649.558V1066.67L672.657 1080H678.432L616.839 1044.44L648.115 1026.39L740.984 1080H746.759L651.001 1024.72L682.279 1006.67L781.882 1064.17L754.453 1080H760.229L785.478 1065.42H785.485L817.49 1046.94V1080H820.377V1046.94L851.654 1065V1080H854.542V1066.67L877.64 1080H883.415L821.823 1044.44L853.098 1026.39L945.968 1080H951.742L855.985 1024.72L887.261 1006.67L986.865 1064.17L959.435 1080H965.211L990.46 1065.42H990.469L999.104 1060.44V1057.11L989.753 1062.5L890.148 1004.99L921.425 986.929L999.104 1031.78V1028.45L991.197 1023.89V908.875L999.104 913.435V910.105L924.313 866.926L955.59 848.86L999.104 873.987V870.657L958.477 847.202L989.753 829.136L999.104 834.539V831.209L992.64 827.478L999.104 823.747V820.404L922.869 864.426V828.307L999.104 784.285V780.956L922.869 824.977V788.859L999.104 744.837V741.508L922.869 785.529V749.411L990.463 710.377H990.464L999.104 705.389V702.059L989.753 707.462L890.15 649.948L921.425 631.895L999.104 676.746V673.402L996.263 671.771L991.197 668.843V553.831L999.104 558.397V555.061L924.313 511.88L955.59 493.823L999.104 518.947V515.612L958.477 492.155L989.753 474.099L999.104 479.499V476.163L992.64 472.431L999.104 468.7V465.365L922.869 509.379V473.265L999.104 429.25V425.915L922.869 469.93V433.815L999.104 389.8V386.467L922.869 430.482V394.367L990.463 355.341C990.464 355.341 990.464 355.341 990.464 355.34L999.104 350.352V347.017L989.753 352.417L890.15 294.911L921.425 276.854L999.104 321.702V318.367L991.197 313.802V198.79L999.104 203.355V200.021L924.313 156.841L955.59 138.783L999.104 163.907V160.572L958.477 137.115L989.753 119.059L999.104 124.457V121.123L992.64 117.391L999.104 113.659V110.324L922.869 154.337V118.224L999.104 74.2094V70.8746L922.869 114.889V78.776L999.104 34.7611V31.425L922.869 75.4395V39.3264L956.301 20.025V20.0238L990.463 0.301037C990.464 0.301037 990.464 0.299432 990.464 0.299432L990.984 0H985.209L955.587 17.102L925.97 0H920.194L952.7 18.7692L921.425 36.826L857.643 0H851.654V114.889L820.377 96.8327V0H817.49V17.9348L717.885 75.4395V39.3264L751.316 20.025C751.317 20.025 751.317 20.025 751.319 20.0238L785.481 0.301037L785.482 0.299432L786.001 0H780.225L750.606 17.102L720.988 0H715.211L747.719 18.7692L716.442 36.826L652.659 0H646.671V114.889L615.395 96.8327V0H612.508V17.9348L512.903 75.4395V39.3264L546.334 20.025C546.334 20.025 546.335 20.025 546.335 20.0238L580.497 0.301037C580.498 0.301037 580.498 0.299432 580.498 0.299432L581.019 0H575.243L545.624 17.102L516.004 0H510.229L542.735 18.7692L511.459 36.826L447.676 0H441.688V114.889L410.411 96.8327V0H407.524V17.9348L307.919 75.4395V39.3264L341.35 20.025C341.35 20.025 341.351 20.025 341.351 20.0238L375.513 0.301037C375.515 0.301037 375.515 0.299432 375.516 0.299432L376.034 0H370.26L340.64 17.102L311.02 0H305.245L337.752 18.7692L306.475 36.826L242.693 0H236.705V114.889L205.429 96.8327V0H202.542V17.9348L102.937 75.4395V39.3264Z" fill="#E8E4DC"/>
<path d="M1227.42 21.2693V57.385L1127.81 114.89V78.7766L1227.42 21.2693ZM1264.47 1.5453L1295.74 19.603V134.614L1264.47 116.559V1.5453ZM1432.4 21.2693V57.385L1332.79 114.89V78.7766L1432.4 21.2693ZM1469.45 1.5453L1500.73 19.603V134.614L1469.45 116.559V1.5453ZM1637.38 21.2693V57.385L1537.78 114.89V78.7766L1637.38 21.2693ZM1674.43 1.5453L1705.71 19.603V134.614L1674.43 116.559V1.5453ZM1842.37 21.2693V57.385L1742.76 114.89V78.7766L1842.37 21.2693ZM1879.42 1.5453L1910.69 19.603V134.614L1879.42 116.559V1.5453ZM2013.19 312.135L1981.91 294.077V179.066L2013.19 197.124V312.135ZM2011.74 354.085L1980.46 372.142L1880.86 314.636L1912.14 296.579L2011.74 354.085ZM2013.19 667.172L1981.91 649.119V534.107L2013.19 552.163V667.172ZM2011.74 709.12L1980.46 727.187L1880.86 669.672L1912.14 651.62L2011.74 709.12ZM1979.02 887.48V1002.49L1947.74 984.429V869.427L1979.02 887.48ZM2013.19 1022.22L1981.91 1004.17V889.151L2013.19 907.204V1022.22ZM1809.64 1062.5L1710.04 1005L1741.32 986.93L1840.92 1044.44L1809.64 1062.5ZM1604.66 1062.5L1505.06 1005L1536.33 986.93L1635.94 1044.44L1604.66 1062.5ZM1399.68 1062.5L1300.08 1005L1331.35 986.93L1430.96 1044.44L1399.68 1062.5ZM1194.7 1062.5L1095.09 1005L1126.37 986.93L1225.97 1044.44L1194.7 1062.5ZM956.994 889.151L988.27 907.204V1022.22L956.994 1004.17V889.151ZM958.437 847.203L989.713 829.137L1089.32 886.651L1058.04 904.703L958.437 847.203ZM956.994 534.107L988.27 552.163V667.172L956.994 649.119V534.107ZM958.438 492.155L989.713 474.1L1089.32 531.605L1058.04 549.663L958.438 492.155ZM956.994 179.066L988.27 197.124V312.135L956.994 294.077V179.066ZM958.438 137.116L989.713 119.059L1089.32 176.565L1058.04 194.621L958.438 137.116ZM1059.49 1.5453L1090.76 19.603V134.614L1059.49 116.559V1.5453ZM1227.42 96.8334L1127.81 154.338V118.225L1227.42 60.7189V96.8334ZM1328.46 156.841L1297.19 174.897L1197.59 117.392L1228.86 99.3354L1328.46 156.841ZM1329.91 154.338L1298.63 136.283V21.2693L1329.91 39.327V154.338ZM1432.4 96.8334L1332.79 154.338V118.225L1432.4 60.7189V96.8334ZM1533.45 156.841L1502.17 174.897L1402.57 117.392L1433.84 99.3354L1533.45 156.841ZM1534.89 154.338L1503.61 136.283V21.2693L1534.89 39.327V154.338ZM1637.38 96.8334L1537.78 154.338V118.225L1637.38 60.7189V96.8334ZM1738.43 156.841L1707.15 174.897L1607.55 117.392L1638.82 99.3354L1738.43 156.841ZM1739.87 154.338L1708.6 136.283V21.2693L1739.87 39.327V154.338ZM1842.37 96.8334L1742.76 154.338V118.225L1842.37 60.7189V96.8334ZM1943.41 156.841L1912.14 174.897L1812.53 117.392L1843.81 99.3354L1943.41 156.841ZM1944.86 154.338L1913.58 136.283V21.2693L1944.86 39.327V154.338ZM1947.74 274.353V159.342L1979.02 177.399V292.41L1947.74 274.353ZM1946.3 391.866L1846.7 334.36L1877.97 316.305L1977.58 373.809L1946.3 391.866ZM1944.86 509.38L1913.58 491.322V376.311L1944.86 394.368V509.38ZM1947.74 629.395V514.383L1979.02 532.439V647.447L1947.74 629.395ZM1946.3 746.911L1846.7 689.396L1877.97 671.344L1977.58 728.844L1946.3 746.911ZM1944.86 864.426L1913.58 846.36V731.345L1944.86 749.411V864.426ZM991.158 1023.89V908.876L1022.44 926.928V1041.94L991.158 1023.89ZM1023.88 809.413L1123.48 866.927L1092.21 884.979L992.603 827.479L1023.88 809.413ZM1056.6 709.963V824.978L1025.32 806.912V691.897L1056.6 709.963ZM1023.88 454.376L1123.48 511.881L1092.21 529.937L992.603 472.431L1023.88 454.376ZM1025.32 336.862L1056.6 354.92V469.93L1025.32 451.874V336.862ZM1023.88 99.3354L1123.48 156.841L1092.21 174.897L992.603 117.392L1023.88 99.3354ZM1124.93 154.338L1093.65 136.283V21.2693L1124.93 39.327V154.338ZM1263.03 194.621L1163.42 137.116L1194.7 119.059L1294.3 176.565L1263.03 194.621ZM1468.01 194.621L1368.4 137.116L1399.68 119.059L1499.29 176.565L1468.01 194.621ZM1672.99 194.621L1573.39 137.116L1604.66 119.059L1704.27 176.565L1672.99 194.621ZM1877.97 194.621L1778.37 137.116L1809.65 119.059L1909.25 176.565L1877.97 194.621ZM1845.25 295.746L1944.86 238.24V274.353L1845.25 331.859V295.746ZM1876.53 469.93L1845.25 451.874V336.862L1876.53 354.92V469.93ZM1879.42 471.598V356.587L1910.7 374.644V489.656L1879.42 471.598ZM1943.41 511.881L1912.14 529.937L1812.53 472.431L1843.81 454.376L1943.41 511.881ZM1944.86 550.496L1845.25 607.999V571.888L1878.68 552.587C1878.69 552.587 1878.69 552.587 1878.69 552.586L1912.85 532.863C1912.85 532.862 1912.85 532.862 1912.85 532.862L1944.86 514.383V550.496ZM1845.25 650.791L1944.86 593.28V629.395L1845.25 686.896V650.791ZM1876.53 824.978L1845.25 806.912V691.897L1876.53 709.963V824.978ZM1879.42 826.636V711.621L1910.7 729.687V844.702L1879.42 826.636ZM1944.86 905.532L1845.25 963.047V926.928L1878.68 907.632H1878.69L1912.85 887.908H1912.85L1944.86 869.427V905.532ZM1811.09 908.876L1842.37 926.928V1041.94L1811.09 1023.89V908.876ZM1776.93 1004.17V889.151L1808.2 907.204V1022.22L1776.93 1004.17ZM1640.27 1005.82L1739.87 948.324V984.429L1640.27 1041.94V1005.82ZM1606.11 908.876L1637.38 926.928V1041.94L1606.11 1023.89V908.876ZM1571.94 1004.17V889.151L1603.22 907.204V1022.22L1571.94 1004.17ZM1435.29 1005.82L1534.89 948.324V984.429L1435.29 1041.94V1005.82ZM1401.12 908.876L1432.4 926.928V1041.94L1401.12 1023.89V908.876ZM1366.96 1004.17V889.151L1398.24 907.204V1022.22L1366.96 1004.17ZM1230.31 1005.82L1329.91 948.324V984.429L1230.31 1041.94V1005.82ZM1196.14 908.876L1227.42 926.928V1041.94L1196.14 1023.89V908.876ZM1161.98 1004.17V889.151L1193.26 907.204V1022.22L1161.98 1004.17ZM1025.32 1005.82L1124.93 948.324V984.429L1025.32 1041.94V1005.82ZM1124.93 944.981L1025.32 1002.49V966.376L1124.93 908.876V944.981ZM1090.76 729.687V844.702L1059.49 826.636V711.621L1090.76 729.687ZM1058.04 671.344L1157.65 728.844L1126.37 746.911L1026.77 689.396L1058.04 671.344ZM1025.32 650.791L1124.93 593.28V629.395L1025.32 686.896V650.791ZM1124.93 589.944L1025.32 647.447V611.342L1124.93 553.832V589.944ZM1093.65 491.322V376.311L1124.93 394.368V509.38L1093.65 491.322ZM1090.76 374.644V489.656L1059.49 471.598V356.587L1090.76 374.644ZM1058.04 316.305L1157.65 373.809L1126.37 391.866L1026.77 334.36L1058.04 316.305ZM1025.32 295.746L1124.93 238.24V274.353L1025.32 331.859V295.746ZM1124.93 234.903L1025.32 292.41V256.298L1124.93 198.79V234.903ZM1329.91 234.903L1230.31 292.41V256.298L1329.91 198.79V234.903ZM1534.89 234.903L1435.29 292.41V256.298L1534.89 198.79V234.903ZM1739.87 234.903L1640.27 292.41V256.298L1739.87 198.79V234.903ZM1811.09 313.803V198.79L1842.37 216.848V331.859L1811.09 313.803ZM1843.81 569.387L1744.21 511.881L1775.48 493.824L1875.09 551.33L1843.81 569.387ZM1811.09 668.843V553.832L1842.37 571.888V686.896L1811.09 668.843ZM1742.76 869.427L1774.04 887.48V1002.49L1742.76 984.429V869.427ZM1640.27 966.376L1739.87 908.876V944.981L1640.27 1002.49V966.376ZM1640.27 926.928L1673.7 907.632H1673.7L1707.87 887.908H1707.87L1739.87 869.427V905.532L1640.27 963.047V926.928ZM1537.78 869.427L1569.06 887.48V1002.49L1537.78 984.429V869.427ZM1435.29 966.376L1534.89 908.876V944.981L1435.29 1002.49V966.376ZM1435.29 926.928L1468.72 907.632H1468.72L1502.88 887.908H1502.88L1534.89 869.427V905.532L1435.29 963.047V926.928ZM1332.8 869.427L1364.07 887.48V1002.49L1332.8 984.429V869.427ZM1230.31 966.376L1329.91 908.876V944.981L1230.31 1002.49V966.376ZM1230.31 926.928L1263.74 907.632H1263.74L1297.9 887.908H1297.9L1329.91 869.427V905.532L1230.31 963.047V926.928ZM1127.81 869.427L1159.09 887.48V1002.49L1127.81 984.429V869.427ZM1195.41 710.378H1195.41L1227.42 691.897V728.016L1127.81 785.53V749.411L1195.41 710.378ZM1092.21 651.62L1191.81 709.12L1160.53 727.187L1060.93 669.672L1092.21 651.62ZM1159.09 532.439V647.447L1127.81 629.395V514.383L1159.09 532.439ZM1127.81 473.266L1227.42 415.76V451.874L1127.81 509.38V473.266ZM1195.41 355.342H1195.41L1227.42 336.862V372.975L1127.81 430.482V394.368L1195.41 355.342ZM1092.21 296.579L1191.81 354.085L1160.53 372.142L1060.93 314.636L1092.21 296.579ZM1159.09 292.41L1127.81 274.353V159.342L1159.09 177.399V292.41ZM1193.26 312.135L1161.98 294.077V179.066L1193.26 197.124V312.135ZM1227.42 331.859L1196.14 313.803V198.79L1227.42 216.848V331.859ZM1329.91 274.353L1230.31 331.859V295.746L1329.91 238.24V274.353ZM1364.07 292.41L1332.8 274.353V159.342L1364.07 177.399V292.41ZM1398.24 312.135L1366.96 294.077V179.066L1398.24 197.124V312.135ZM1432.4 331.859L1401.12 313.803V198.79L1432.4 216.848V331.859ZM1534.89 274.353L1435.29 331.859V295.746L1534.89 238.24V274.353ZM1569.06 292.41L1537.78 274.353V159.342L1569.06 177.399V292.41ZM1603.22 312.135L1571.94 294.077V179.066L1603.22 197.124V312.135ZM1637.38 331.859L1606.11 313.803V198.79L1637.38 216.848V331.859ZM1739.87 274.353L1640.27 331.859V295.746L1739.87 238.24V274.353ZM1774.04 292.41L1742.76 274.353V159.342L1774.04 177.399V292.41ZM1776.93 294.077V179.066L1808.2 197.124V312.135L1776.93 294.077ZM1809.65 352.418L1710.04 294.912L1741.32 276.855L1840.92 334.36L1809.65 352.418ZM1842.37 372.975L1742.76 430.482V394.368L1776.19 375.066H1776.2L1810.36 355.342H1810.36L1842.37 336.862V372.975ZM1742.76 509.38V473.266L1842.37 415.76V451.874L1742.76 509.38ZM1774.04 647.447L1742.76 629.395V514.383L1774.04 532.439V647.447ZM1776.93 649.119V534.107L1808.2 552.163V667.172L1776.93 649.119ZM1809.65 707.462L1710.04 649.948L1741.32 631.896L1840.92 689.396L1809.65 707.462ZM1842.37 728.016L1742.76 785.53V749.411L1776.19 730.102H1776.2L1810.36 710.378H1810.36L1842.37 691.897V728.016ZM1742.76 864.426V828.308L1842.37 770.807V806.912L1742.76 864.426ZM1127.81 828.308L1227.42 770.807V806.912L1127.81 864.426V828.308ZM1227.42 767.464L1127.81 824.978V788.859L1227.42 731.345V767.464ZM1193.25 552.163V667.172L1161.98 649.119V534.107L1193.25 552.163ZM1160.53 493.824L1260.14 551.33L1228.86 569.387L1129.26 511.881L1160.53 493.824ZM1741.32 391.866L1641.71 334.36L1672.99 316.305L1772.59 373.809L1741.32 391.866ZM1741.32 746.909L1641.71 689.395L1672.99 671.343L1772.59 728.843L1741.32 746.909ZM1261.58 709.962V824.977L1230.3 806.911V691.896L1261.58 709.962ZM1263.73 552.586H1263.74L1297.9 532.862C1297.9 532.861 1297.9 532.861 1297.9 532.861L1329.91 514.382V550.495L1230.3 607.998V571.886L1263.73 552.586ZM1194.7 474.099L1294.3 531.604L1263.03 549.662L1163.42 492.154L1194.7 474.099ZM1230.3 336.86L1261.58 354.918V469.929L1230.3 451.873V336.86ZM1263.03 316.303L1362.63 373.808L1331.35 391.864L1231.75 334.358L1263.03 316.303ZM1399.68 352.416L1300.08 294.91L1331.35 276.854L1430.96 334.358L1399.68 352.416ZM1468.01 316.303L1567.61 373.808L1536.33 391.864L1436.73 334.358L1468.01 316.303ZM1604.66 352.416L1505.06 294.91L1536.33 276.854L1635.94 334.358L1604.66 352.416ZM1671.55 469.929L1640.27 451.873V336.86L1671.55 354.918V469.929ZM1705.71 489.655L1674.43 471.597V356.586L1705.71 374.642V489.655ZM1739.87 509.379L1708.6 491.321V376.31L1739.87 394.366V509.379ZM1739.87 550.495L1640.27 607.998V571.886L1673.7 552.586C1673.7 552.586 1673.7 552.586 1673.7 552.585L1707.86 532.862C1707.86 532.861 1707.87 532.861 1707.87 532.861L1739.87 514.382V550.495ZM1739.87 629.394L1640.27 686.894V650.789L1739.87 593.279V629.394ZM1503.61 731.344L1534.89 749.41V864.425L1503.61 846.359V731.344ZM1469.45 711.62L1500.73 729.686V844.701L1469.45 826.635V711.62ZM1435.29 691.896L1466.56 709.962V824.977L1435.29 806.911V691.896ZM1298.63 731.344L1329.91 749.41V864.425L1298.63 846.359V731.344ZM1295.74 729.686V844.701L1264.47 826.635V711.62L1295.74 729.686ZM1263.03 671.343L1362.63 728.843L1331.35 746.909L1231.75 689.395L1263.03 671.343ZM1230.3 650.789L1329.91 593.279V629.394L1230.3 686.894V650.789ZM1329.91 589.943L1230.3 647.446V611.341L1329.91 553.831V589.943ZM1329.91 509.379L1298.63 491.321V376.31L1329.91 394.366V509.379ZM1466.56 469.929L1435.29 451.873V336.86L1466.56 354.918V469.929ZM1500.73 489.655L1469.45 471.597V356.586L1500.73 374.642V489.655ZM1534.89 509.379L1503.61 491.321V376.31L1534.89 394.366V509.379ZM1638.82 569.386L1539.22 511.88L1570.5 493.823L1670.1 551.329L1638.82 569.386ZM1637.38 728.014L1537.78 785.528V749.41L1571.21 730.1H1571.21L1605.37 710.376H1605.37L1637.38 691.896V728.014ZM1537.78 788.858L1637.38 731.344V767.463L1537.78 824.977V788.858ZM1297.19 651.618L1396.79 709.119L1365.52 727.185L1265.91 669.671L1297.19 651.618ZM1364.07 532.438V647.446L1332.79 629.394V514.382L1364.07 532.438ZM1432.4 412.423L1332.79 469.929V433.815L1432.4 376.31V412.423ZM1533.45 511.88L1502.17 529.936L1402.57 472.43L1433.84 454.375L1533.45 511.88ZM1637.38 412.423L1537.78 469.929V433.815L1637.38 376.31V412.423ZM1637.38 451.873L1537.78 509.379V473.264L1637.38 415.758V451.873ZM1569.05 647.446L1537.78 629.394V514.382L1569.05 532.438V647.446ZM1603.22 667.17L1571.94 649.118V534.106L1603.22 552.162V667.17ZM1637.38 686.894L1606.11 668.842V553.831L1637.38 571.886V686.894ZM1398.23 552.162V667.17L1366.96 649.118V534.106L1398.23 552.162ZM1365.52 493.823L1465.12 551.329L1433.84 569.386L1334.24 511.88L1365.52 493.823ZM1468.01 549.662L1368.4 492.154L1399.68 474.099L1499.28 531.604L1468.01 549.662ZM1435.29 650.789L1534.89 593.279V629.394L1435.29 686.894V650.789ZM1534.89 589.943L1435.29 647.446V611.341L1534.89 553.831V589.943ZM1401.12 668.842V553.831L1432.4 571.886V686.894L1401.12 668.842ZM1502.88 532.861L1534.89 514.382V550.495L1435.29 607.998V571.886L1468.72 552.586H1468.72L1502.88 532.862C1502.88 532.861 1502.88 532.861 1502.88 532.861ZM1332.79 473.264L1432.4 415.758V451.873L1332.79 509.379V473.264ZM1399.68 707.461L1300.08 649.947L1331.35 631.894L1430.96 689.395L1399.68 707.461ZM1570.5 727.185L1470.89 669.671L1502.17 651.618L1601.77 709.119L1570.5 727.185ZM1604.66 707.461L1505.06 649.947L1536.33 631.894L1635.94 689.395L1604.66 707.461ZM1432.4 728.014L1332.79 785.528V749.41L1366.23 730.1H1366.23L1400.39 710.376H1400.39L1432.4 691.896V728.014ZM1332.79 788.858L1432.4 731.344V767.463L1332.79 824.977V788.858ZM1436.73 689.395L1468.01 671.343L1567.61 728.843L1536.33 746.909L1436.73 689.395ZM1739.87 589.943L1640.27 647.446V611.341L1739.87 553.831V589.943ZM1672.99 549.662L1573.39 492.154L1604.66 474.099L1704.27 531.604L1672.99 549.662ZM1738.43 511.88L1707.15 529.936L1607.55 472.43L1638.82 454.375L1738.43 511.88ZM1571.21 375.065H1571.21L1605.37 355.341C1605.37 355.341 1605.37 355.341 1605.37 355.339L1637.38 336.86V372.974L1537.78 430.481V394.366L1571.21 375.065ZM1570.5 372.14L1470.89 314.634L1502.17 296.578L1601.77 354.084L1570.5 372.14ZM1366.23 375.065H1366.23L1400.39 355.341C1400.39 355.341 1400.39 355.341 1400.39 355.339L1432.4 336.86V372.974L1332.79 430.481V394.366L1366.23 375.065ZM1365.52 372.14L1265.91 314.634L1297.19 296.578L1396.79 354.084L1365.52 372.14ZM1295.74 374.642V489.655L1264.47 471.597V356.586L1295.74 374.642ZM1297.19 529.936L1197.59 472.43L1228.86 454.375L1328.46 511.88L1297.19 529.936ZM1432.4 806.911L1332.79 864.425V828.306L1432.4 770.805V806.911ZM1637.38 806.911L1537.78 864.425V828.306L1637.38 770.805V806.911ZM1671.55 824.977L1640.27 806.911V691.896L1671.55 709.962V824.977ZM1705.71 844.701L1674.43 826.635V711.62L1705.71 729.686V844.701ZM1739.87 749.41V864.425L1708.6 846.359V731.344L1739.87 749.41ZM1196.14 668.842V553.831L1227.42 571.886V686.894L1196.14 668.842ZM1842.36 767.463L1742.76 824.977V788.858L1842.36 731.344V767.463ZM1775.48 727.185L1675.88 669.671L1707.15 651.618L1806.76 709.119L1775.48 727.185ZM1842.36 412.423L1742.76 469.929V433.815L1842.36 376.31V412.423ZM1775.48 372.14L1675.88 314.634L1707.15 296.578L1806.76 354.084L1775.48 372.14ZM1194.69 352.416L1095.09 294.91L1126.37 276.854L1225.97 334.358L1194.69 352.416ZM1127.81 433.815L1227.41 376.31V412.423L1127.81 469.929V433.815ZM1194.69 707.461L1095.09 649.947L1126.37 631.894L1225.97 689.395L1194.69 707.461ZM1263.02 904.702L1163.42 847.201L1194.69 829.135L1294.3 886.65L1263.02 904.702ZM1297.18 884.978L1197.58 827.477L1228.86 809.411L1328.46 866.925L1297.18 884.978ZM1468 904.702L1368.4 847.201L1399.68 829.135L1499.28 886.65L1468 904.702ZM1502.17 884.978L1402.56 827.477L1433.84 809.411L1533.44 866.925L1502.17 884.978ZM1672.99 904.702L1573.38 847.201L1604.66 829.135L1704.26 886.65L1672.99 904.702ZM1707.15 884.978L1607.55 827.477L1638.82 809.411L1738.43 866.925L1707.15 884.978ZM1124.92 749.41V864.425L1093.65 846.359V731.344L1124.92 749.41ZM1129.25 866.925L1160.53 848.86L1260.13 906.374L1228.86 924.426L1129.25 866.925ZM1334.23 866.925L1365.51 848.86L1465.12 906.374L1433.84 924.426L1334.23 866.925ZM1539.22 866.925L1570.49 848.86L1670.1 906.374L1638.82 924.426L1539.22 866.925ZM1843.81 924.426L1744.2 866.925L1775.48 848.86L1875.08 906.374L1843.81 924.426ZM1944.85 944.98L1845.25 1002.49V966.375L1944.85 908.874V944.98ZM1877.97 904.702L1778.37 847.201L1809.64 829.135L1909.25 886.65L1877.97 904.702ZM1912.13 884.978L1812.53 827.477L1843.81 809.411L1943.41 866.925L1912.13 884.978ZM1944.85 589.943L1845.25 647.446V611.341L1944.85 553.831V589.943ZM1877.97 549.662L1778.37 492.154L1809.64 474.099L1909.25 531.604L1877.97 549.662ZM1944.85 234.902L1845.25 292.408V256.296L1944.85 198.789V234.902ZM1775.48 138.782L1875.08 196.288L1843.81 214.345L1744.2 156.84L1775.48 138.782ZM1570.49 138.782L1670.1 196.288L1638.82 214.345L1539.22 156.84L1570.49 138.782ZM1365.51 138.782L1465.11 196.288L1433.84 214.345L1334.23 156.84L1365.51 138.782ZM1160.53 138.782L1260.13 196.288L1228.86 214.345L1129.25 156.84L1160.53 138.782ZM1944.85 984.429L1845.25 1041.94V1005.82L1944.85 948.323V984.429ZM1912.84 177.82L1944.85 159.341V195.454L1845.25 252.96V216.847L1878.68 197.544H1878.68L1912.84 177.82H1912.84ZM1707.86 177.82L1739.87 159.341V195.454L1640.27 252.96V216.847L1673.7 197.546C1673.7 197.544 1673.7 197.544 1673.7 197.544L1707.86 177.82H1707.86ZM1502.88 177.82L1534.89 159.341V195.454L1435.28 252.96V216.847L1468.71 197.544H1468.71L1502.88 177.82H1502.88ZM1297.9 177.82L1329.9 159.341V195.454L1230.3 252.96V216.847L1263.73 197.544H1263.73L1297.89 177.82H1297.9ZM1058.75 197.544H1058.75L1092.91 177.82H1092.91L1124.92 159.341V195.454L1025.32 252.96V216.847L1058.75 197.544ZM991.153 313.802V198.789L1022.43 216.847V331.858L991.153 313.802ZM1058.75 552.586C1058.75 552.586 1058.75 552.586 1058.75 552.585L1092.91 532.862C1092.91 532.861 1092.91 532.861 1092.91 532.861L1124.92 514.382V550.495L1025.32 607.998V571.887L1058.75 552.586ZM991.153 668.842V553.831L1022.43 571.887V686.895L991.153 668.842ZM1058.75 907.631H1058.75L1124.92 869.426V905.532L1025.32 963.046V926.927L1058.75 907.631ZM1127.81 39.3264L1161.24 20.025V20.0238L1195.4 0.301037L1195.41 0.299432L1195.92 0H1190.15L1160.53 17.102L1130.91 0H1125.13L1157.64 18.7692L1126.36 36.826L1062.58 0H1056.59V114.889L1025.32 96.8327V0H1022.43V17.9348L943.973 63.2321V66.5657L1022.43 21.2687V57.3844L943.973 102.68V106.014L1022.43 60.7183V96.8327L943.973 142.13V145.464L955.546 138.783L1055.15 196.289L1023.87 214.346L943.973 168.215V171.552L954.101 177.398V292.409L943.973 286.563V289.896L1020.99 334.359L989.708 352.417L943.973 326.011V329.346L986.821 354.085L955.545 372.141L943.973 365.46V368.794L952.656 373.809L943.973 378.822V382.158L990.42 355.341C990.42 355.341 990.421 355.341 990.421 355.34L1022.43 336.861V372.974L943.973 418.272V421.606L1022.43 376.311V412.424L943.973 457.72V461.056L1022.43 415.759V451.873L943.973 497.169V500.506L955.546 493.823L1055.15 551.33L1023.87 569.386L943.973 523.256V526.591L954.101 532.439V647.447L943.973 641.603V644.933L1020.99 689.396L989.708 707.462L943.973 681.052V684.381L986.821 709.12L955.545 727.186L943.973 720.5V723.843L952.656 728.844L943.973 733.858V737.202L990.42 710.377H990.421L1022.43 691.896V728.015L943.973 773.307V776.65L1022.43 731.345V767.463L943.973 812.768V816.098L1022.43 770.806V806.911L943.973 852.217V855.546L955.546 848.86L1055.15 906.374L1023.87 924.427L943.973 878.293V881.636L954.101 887.479V1002.49L943.973 996.651V999.98L1020.99 1044.44L989.708 1062.5L943.973 1036.1V1039.43L986.821 1064.17L959.391 1080H965.166L990.417 1065.42H990.424L1022.43 1046.94V1080H1025.32V1046.94L1056.59 1065V1080H1059.48V1066.67L1082.58 1080H1088.35L1026.76 1044.44L1058.04 1026.39L1150.91 1080H1156.68L1060.92 1024.72L1092.2 1006.67L1191.81 1064.17L1164.38 1080H1170.15L1195.4 1065.42H1195.41L1227.41 1046.94V1080H1230.3V1046.94L1261.58 1065V1080H1264.46V1066.67L1287.56 1080H1293.34L1231.74 1044.44L1263.02 1026.39L1355.89 1080H1361.66L1265.91 1024.72L1297.18 1006.67L1396.79 1064.17L1369.36 1080H1375.13L1400.38 1065.42H1400.39L1432.4 1046.94V1080H1435.28V1046.94L1466.56 1065V1080H1469.45V1066.67L1492.55 1080H1498.32L1436.73 1044.44L1468 1026.39L1560.87 1080H1566.65L1470.89 1024.72L1502.17 1006.67L1601.77 1064.17L1574.34 1080H1580.12L1605.37 1065.42H1605.37L1637.38 1046.94V1080H1640.27V1046.94L1671.54 1065V1080H1674.43V1066.67L1697.53 1080H1703.3L1641.71 1044.44L1672.99 1026.39L1765.86 1080H1771.63L1675.87 1024.72L1707.15 1006.67L1806.75 1064.17L1779.32 1080H1785.1L1810.35 1065.42H1810.36L1842.36 1046.94V1080H1845.25V1046.94L1876.52 1065V1080H1879.41V1066.67L1902.51 1080H1908.29L1846.69 1044.44L1877.97 1026.39L1970.84 1080H1976.61L1880.86 1024.72L1912.13 1006.67L2011.74 1064.17L1984.31 1080H1990.08L2015.33 1065.42H2015.34L2023.98 1060.44V1057.11L2014.62 1062.5L1915.02 1004.99L1946.3 986.929L2023.98 1031.78V1028.45L2016.07 1023.89V908.875L2023.98 913.435V910.105L1949.18 866.926L1980.46 848.86L2023.98 873.987V870.657L1983.35 847.202L2014.62 829.136L2023.98 834.539V831.209L2017.51 827.478L2023.98 823.747V820.404L1947.74 864.426V828.307L2023.98 784.285V780.956L1947.74 824.977V788.859L2023.98 744.837V741.508L1947.74 785.529V749.411L2015.33 710.377H2015.34L2023.98 705.389V702.059L2014.62 707.462L1915.02 649.948L1946.3 631.895L2023.98 676.746V673.402L2021.13 671.771L2016.07 668.843V553.831L2023.98 558.397V555.061L1949.18 511.88L1980.46 493.823L2023.98 518.947V515.612L1983.35 492.155L2014.62 474.099L2023.98 479.499V476.163L2017.51 472.431L2023.98 468.7V465.365L1947.74 509.379V473.265L2023.98 429.25V425.915L1947.74 469.93V433.815L2023.98 389.8V386.467L1947.74 430.482V394.367L2015.33 355.341C2015.34 355.341 2015.34 355.341 2015.34 355.34L2023.98 350.352V347.017L2014.62 352.417L1915.02 294.911L1946.3 276.854L2023.98 321.702V318.367L2016.07 313.802V198.79L2023.98 203.355V200.021L1949.18 156.841L1980.46 138.783L2023.98 163.907V160.572L1983.35 137.115L2014.62 119.059L2023.98 124.457V121.123L2017.51 117.391L2023.98 113.659V110.324L1947.74 154.337V118.224L2023.98 74.2094V70.8746L1947.74 114.889V78.776L2023.98 34.7611V31.425L1947.74 75.4395V39.3264L1981.17 20.025V20.0238L2015.33 0.301037C2015.34 0.301037 2015.34 0.299432 2015.34 0.299432L2015.86 0H2010.08L1980.46 17.102L1950.84 0H1945.07L1977.57 18.7692L1946.3 36.826L1882.51 0H1876.52V114.889L1845.25 96.8327V0H1842.36V17.9348L1742.76 75.4395V39.3264L1776.19 20.025C1776.19 20.025 1776.19 20.025 1776.19 20.0238L1810.35 0.301037L1810.35 0.299432L1810.87 0H1805.1L1775.48 17.102L1745.86 0H1740.08L1772.59 18.7692L1741.31 36.826L1677.53 0H1671.54V114.889L1640.27 96.8327V0H1637.38V17.9348L1537.77 75.4395V39.3264L1571.2 20.025C1571.2 20.025 1571.21 20.025 1571.21 20.0238L1605.37 0.301037C1605.37 0.301037 1605.37 0.299432 1605.37 0.299432L1605.89 0H1600.11L1570.49 17.102L1540.88 0H1535.1L1567.61 18.7692L1536.33 36.826L1472.55 0H1466.56V114.889L1435.28 96.8327V0H1432.4V17.9348L1332.79 75.4395V39.3264L1366.22 20.025C1366.22 20.025 1366.22 20.025 1366.22 20.0238L1400.38 0.301037C1400.39 0.301037 1400.39 0.299432 1400.39 0.299432L1400.9 0H1395.13L1365.51 17.102L1335.89 0H1330.12L1362.62 18.7692L1331.35 36.826L1267.56 0H1261.58V114.889L1230.3 96.8327V0H1227.41V17.9348L1127.81 75.4395V39.3264Z" fill="#E8E4DC"/>
</svg>
